<?xml version="1.0" standalone="no"?>
<!DOCTYPE svg PUBLIC "-//W3C//DTD SVG 20010904//EN"
 "http://www.w3.org/TR/2001/REC-SVG-20010904/DTD/svg10.dtd">
<svg version="1.0" xmlns="http://www.w3.org/2000/svg"
 width="512.000000pt" height="512.000000pt" viewBox="0 0 512.000000 512.000000"
 preserveAspectRatio="xMidYMid meet">
<metadata>
Created by potrace 1.16, written by Peter Selinger 2001-2019
</metadata>
<g transform="translate(0.000000,512.000000) scale(0.100000,-0.100000)"
fill="#000000" stroke="none">
<path d="M2892 4929 c-54 -27 -107 -78 -210 -207 -77 -94 -170 -182 -193 -182
-6 0 -7 -4 -4 -10 3 -5 14 -10 23 -10 21 0 134 114 219 220 71 88 143 157 179
170 46 18 92 12 109 -13 29 -45 39 -132 27 -226 -11 -83 -45 -203 -64 -228 -6
-7 -5 -27 3 -52 9 -30 9 -50 0 -85 -8 -31 -8 -53 -1 -72 11 -27 4 -94 -10 -94
-4 0 -40 35 -81 77 l-73 77 -185 0 c-199 1 -272 -4 -264 -18 3 -4 -4 -5 -16
-1 -12 4 -21 2 -21 -4 0 -6 -7 -8 -15 -5 -8 4 -15 2 -15 -4 0 -7 -38 -10 -102
-9 l-103 2 -17 35 -17 35 6 -34 c4 -20 2 -32 -3 -28 -21 13 -204 25 -268 18
l-70 -7 -40 39 c-39 38 -40 39 -10 24 17 -9 34 -13 38 -10 3 4 -8 13 -26 20
-35 15 -30 28 17 37 21 5 24 4 11 -2 -19 -8 -18 -9 4 -25 18 -12 26 -14 31 -5
4 7 5 16 2 21 -3 6 8 8 26 5 17 -2 31 -1 31 4 0 4 -8 8 -17 9 -10 0 3 7 30 16
28 9 47 22 47 31 0 12 2 12 16 1 15 -12 16 -11 10 8 -4 12 -2 24 4 28 18 11
-19 65 -113 162 -137 141 -236 200 -275 161 -16 -16 -15 -92 3 -161 31 -118
100 -281 138 -322 41 -45 41 -55 0 -29 l-28 18 19 -22 c11 -12 15 -22 9 -22
-18 0 -44 37 -54 76 -6 22 -31 90 -55 151 -90 229 -99 373 -25 373 10 0 46
-14 82 -32 49 -24 100 -68 226 -191 113 -111 163 -154 163 -140 0 10 -5 24
-12 31 -9 9 -4 10 20 3 35 -11 79 -8 202 10 47 6 117 9 161 6 46 -4 81 -2 84
3 3 6 23 10 43 11 35 0 36 1 14 12 -17 8 -31 8 -53 0 -18 -7 -65 -9 -122 -6
-60 3 -115 0 -159 -9 -36 -8 -101 -13 -143 -12 l-77 3 -137 134 c-181 177
-280 229 -342 178 -19 -16 -22 -27 -21 -82 1 -72 35 -200 87 -326 19 -46 35
-91 35 -101 0 -9 9 -36 20 -59 10 -24 15 -44 10 -44 -6 -1 -16 -2 -22 -3 -19
-2 -22 -100 -5 -128 29 -45 41 -121 29 -171 -17 -64 -15 -168 3 -238 9 -33 13
-64 10 -69 -3 -6 -2 -10 3 -10 5 0 12 -11 14 -25 4 -19 0 -26 -21 -35 -26 -10
-25 -10 4 -5 27 5 32 2 43 -27 9 -25 9 -34 -1 -41 -8 -6 -7 -7 6 -3 11 3 17 0
17 -9 0 -8 -4 -15 -8 -15 -5 0 -17 -7 -28 -15 -16 -13 -13 -13 15 0 35 18 36
18 61 -26 6 -11 -1 -27 -27 -60 -19 -24 -44 -57 -55 -74 -15 -23 -13 -22 9 5
15 19 42 50 60 70 l32 35 43 -46 c24 -25 55 -54 70 -63 l27 -18 -37 -75 -37
-75 -145 -74 c-284 -144 -404 -212 -419 -233 -8 -13 -17 -64 -21 -124 -8 -108
-83 -426 -116 -488 -13 -26 -15 -48 -11 -102 6 -64 4 -72 -19 -103 -19 -25
-30 -57 -40 -121 -7 -49 -22 -131 -33 -183 -11 -52 -25 -145 -31 -205 -10
-100 -15 -115 -47 -162 -53 -79 -65 -122 -54 -193 9 -54 7 -67 -25 -157 -23
-67 -34 -116 -34 -155 0 -50 39 -319 71 -491 9 -49 8 -61 -4 -70 -29 -23 -30
-55 -3 -82 32 -32 32 -37 1 -29 -18 4 -27 1 -31 -11 -9 -23 12 -64 36 -73 l21
-8 -20 -18 c-38 -35 -27 -46 44 -46 64 0 64 0 73 33 7 29 15 35 83 59 88 32
79 37 -15 8 -36 -11 -71 -28 -78 -38 -7 -9 -22 -22 -33 -28 -19 -11 -20 -7
-23 85 -4 92 -15 177 -63 486 -12 77 -22 178 -23 225 0 78 3 92 38 170 21 47
53 132 73 190 19 58 50 134 69 170 l35 65 -45 -50 c-55 -60 -95 -136 -105
-202 l-8 -48 -7 37 c-10 48 -3 69 54 158 46 71 49 81 60 175 13 116 52 289 79
349 14 33 39 57 109 108 92 66 94 69 53 93 -10 5 -12 3 -7 -11 4 -15 -5 -25
-44 -46 -58 -33 -60 -33 -60 -13 0 9 -7 18 -16 22 -13 5 -12 9 7 29 22 23 22
25 6 75 -22 65 -21 75 3 109 11 16 32 79 46 142 14 62 36 151 49 198 13 47 26
120 30 163 6 83 12 107 26 107 13 0 27 -64 59 -272 45 -285 46 -290 107 -581
l56 -268 -22 -112 c-22 -115 -29 -250 -17 -323 7 -38 5 -43 -30 -74 l-37 -32
-86 6 c-84 7 -87 6 -131 -23 -58 -38 -171 -155 -195 -201 l-18 -35 45 42 c99
90 200 133 328 139 65 3 91 9 113 24 15 11 27 18 27 15 0 -2 -11 -47 -24 -99
-44 -167 -92 -693 -82 -886 4 -83 3 -110 -5 -97 -5 9 -7 21 -4 27 27 43 -274
-5 -340 -54 -19 -14 -17 -15 30 -16 28 0 74 9 104 20 29 12 77 22 105 23 47 2
51 0 54 -21 3 -22 4 -23 17 -5 13 17 14 17 15 1 0 -23 24 -23 45 -1 14 13 16
31 13 91 l-3 74 29 -6 c16 -4 103 -36 194 -72 90 -36 166 -64 168 -61 3 2 -39
29 -93 60 -84 47 -144 75 -271 127 -20 9 -22 16 -22 77 0 121 -20 118 228 36
119 -40 227 -72 238 -73 12 0 27 6 33 14 15 18 53 238 43 247 -4 4 -108 31
-232 59 -124 29 -226 53 -228 54 -1 2 9 50 22 107 14 57 29 124 33 149 l9 45
19 -105 20 -105 5 188 5 188 44 -88 c40 -82 210 -333 244 -362 9 -7 -11 36
-45 96 -79 142 -139 263 -170 343 -47 120 -47 121 33 44 94 -90 178 -158 186
-151 6 6 -49 75 -167 212 -88 102 -109 141 -124 236 -8 46 -30 156 -49 244
-20 88 -39 185 -43 215 -8 52 -8 53 -13 20 -5 -30 -11 -14 -38 100 -18 74 -53
254 -78 400 -25 146 -54 296 -65 335 -14 52 -16 72 -7 77 7 5 116 65 242 134
127 70 238 132 248 139 10 7 35 48 56 92 l38 79 37 -4 c20 -2 36 -8 36 -12 0
-26 -68 -208 -119 -320 -33 -71 -56 -132 -53 -134 4 -2 23 -7 42 -11 l35 -8
-43 -12 c-59 -18 -92 -42 -92 -66 0 -46 85 -191 315 -539 89 -135 215 -330
280 -435 123 -197 155 -244 156 -229 1 15 98 -329 104 -371 l6 -40 -22 35
c-152 238 -288 428 -365 507 -63 66 -64 67 50 -125 70 -117 206 -309 284 -399
28 -34 39 -53 30 -53 -9 0 -27 -9 -42 -21 -51 -40 -26 -139 36 -139 30 0 30
-1 24 -38 -8 -55 -161 -528 -207 -645 -22 -54 -53 -125 -69 -158 l-30 -59 60
0 c59 0 61 1 77 35 l17 35 37 -36 c52 -51 68 -39 25 18 -20 26 -36 50 -36 55
0 13 93 213 99 213 3 0 23 -28 45 -62 21 -35 66 -107 100 -160 l61 -97 74 -1
c55 0 72 3 68 12 -31 72 -84 211 -108 288 -26 80 -169 626 -169 644 0 3 9 6
19 6 48 0 70 75 31 103 -19 13 -18 16 29 64 112 117 302 434 406 680 l53 126
171 43 c94 23 175 46 181 49 5 3 9 34 8 68 l-2 62 -3 -53 c-3 -43 -8 -55 -26
-62 -38 -16 -309 -82 -314 -76 -3 3 5 35 18 72 l24 68 130 23 c72 13 136 26
143 28 17 6 7 43 -19 69 -17 18 -23 19 -81 8 -106 -20 -138 -32 -149 -55 -9
-21 -9 -20 -4 3 3 14 19 75 35 135 28 107 60 268 60 306 0 14 -23 31 -85 61
l-84 42 39 24 c22 13 40 28 40 34 0 13 -86 165 -108 191 -20 23 -15 22 54 -12
32 -17 151 -74 264 -129 113 -54 215 -110 227 -123 36 -39 120 -393 109 -455
-4 -17 -29 -69 -58 -115 -28 -46 -71 -120 -95 -164 l-44 -80 5 105 c3 58 19
173 35 255 18 88 33 196 35 260 l5 110 -9 -85 c-14 -128 -41 -255 -150 -705
-119 -492 -134 -571 -160 -830 -14 -142 -27 -224 -45 -283 -29 -91 -33 -95
-140 -126 -76 -22 -14 -19 75 3 80 20 96 20 58 0 -12 -6 -40 -27 -60 -45 -31
-27 -165 -104 -182 -104 -3 0 -30 43 -61 95 -61 102 -99 144 -48 54 17 -30 47
-84 68 -121 20 -37 40 -70 43 -72 4 -2 56 20 116 50 70 36 106 49 102 39 -14
-38 -133 -205 -153 -216 -47 -25 -14 -44 52 -29 24 5 98 37 166 70 l123 60 27
-26 c16 -15 53 -76 84 -137 59 -115 60 -127 23 -179 l-19 -28 24 0 c14 0 27 7
31 15 4 12 11 13 31 5 15 -6 43 -10 64 -10 37 0 40 3 60 49 11 27 21 64 21 81
l0 30 26 -17 c26 -16 27 -16 45 6 21 25 25 66 9 76 -7 4 -5 14 5 28 8 12 15
36 15 53 0 17 7 37 15 44 18 15 20 70 3 70 -6 0 -19 -7 -29 -16 -17 -15 -39
-12 -39 5 0 4 47 90 105 191 58 102 114 208 125 236 27 72 34 158 21 243 -9
55 -9 88 0 131 10 51 9 62 -10 105 -14 32 -21 68 -21 111 0 68 -14 110 -145
449 l-65 170 6 80 6 80 -37 49 c-34 45 -40 63 -70 212 -18 90 -43 184 -55 208
-23 49 4 33 -404 240 -242 123 -276 149 -358 273 l-65 98 14 43 c10 35 40 96
60 121 1 2 22 -8 45 -23 28 -18 35 -20 19 -6 -13 11 -31 24 -38 29 -17 9 -8
60 12 67 7 3 30 -2 50 -11 21 -8 40 -13 42 -11 2 2 -17 12 -42 22 -42 16 -46
20 -41 43 4 14 9 54 13 89 4 40 9 59 14 50 12 -18 11 -3 -5 107 -8 54 -25 120
-45 165 -29 67 -31 79 -22 120 6 25 10 92 10 150 1 167 6 220 30 305 27 98 38
235 22 292 -26 97 -83 124 -169 82z m-1252 -200 c45 -20 104 -69 121 -101 7
-14 6 -16 -6 -12 -8 3 -13 9 -11 13 3 4 -5 13 -16 20 -20 12 -20 12 1 -18 13
-17 35 -38 51 -46 47 -24 43 -34 -7 -19 -68 21 -75 17 -17 -10 28 -13 55 -29
59 -36 4 -6 -10 -3 -31 8 -40 19 -94 36 -94 28 0 -2 21 -11 47 -20 50 -17 83
-42 83 -61 0 -10 -8 -10 -37 1 -46 16 -73 18 -73 4 0 -5 17 -10 38 -11 32 -1
29 -3 -23 -13 -50 -10 -56 -13 -35 -19 14 -4 37 -7 53 -7 15 0 27 -4 27 -9 0
-14 -46 -22 -90 -15 -36 6 -40 10 -40 35 0 15 -4 30 -9 33 -5 3 -11 17 -13 31
-4 18 1 30 16 40 20 14 19 15 -14 15 l-35 0 27 25 c15 14 33 26 40 27 7 0 -7
4 -32 8 l-45 6 34 16 33 15 -30 22 c-17 11 -36 21 -44 22 -7 1 -2 4 12 8 15 5
36 3 53 -6 15 -7 27 -11 27 -9 0 8 -43 29 -65 31 -35 4 -36 5 -30 15 9 14 24
12 75 -11z m814 -540 c15 -22 25 -43 22 -46 -2 -3 -30 7 -61 21 -58 26 -63 39
-21 56 32 13 31 13 60 -31z m-786 9 c-3 -7 -19 -14 -36 -16 -25 -3 -31 0 -26
12 7 19 68 23 62 4z m207 -23 c42 -31 46 -66 11 -84 -20 -11 -34 -10 -82 4
-81 23 -124 45 -124 62 0 8 19 23 43 34 53 25 106 20 152 -16z m1035 -56 c28
-22 54 -48 57 -57 2 -9 19 -48 35 -87 37 -85 50 -128 37 -120 -5 4 -6 -29 -3
-83 8 -111 -4 -169 -63 -287 -25 -49 -51 -111 -59 -137 -10 -32 -25 -55 -47
-71 -31 -23 -316 -167 -330 -167 -4 0 -7 25 -7 55 l0 56 66 41 c37 23 62 44
57 45 -13 5 -258 -33 -298 -46 -27 -8 -24 -9 27 -10 31 -1 68 -5 82 -11 23 -8
25 -12 16 -35 -6 -15 -10 -40 -10 -56 0 -16 -2 -29 -5 -29 -3 0 -23 11 -44 25
-83 56 -300 128 -434 145 -42 5 -94 18 -115 29 -41 21 -122 97 -122 114 0 6
-6 18 -14 26 -8 9 -16 23 -18 31 -2 8 -10 21 -19 27 -23 17 -34 64 -17 75 10
7 8 8 -4 4 -14 -4 -20 4 -28 37 -6 23 -18 64 -26 91 -17 60 -18 137 -3 204
l12 50 31 -46 c47 -70 108 -97 216 -97 67 1 94 5 127 23 l42 22 20 -28 c15
-20 20 -23 21 -10 0 27 72 242 86 257 8 8 22 11 37 7 19 -4 34 -23 60 -78 18
-40 37 -86 41 -101 4 -15 11 -25 16 -22 5 3 25 -6 45 -19 46 -31 134 -50 194
-41 98 14 162 65 200 163 8 17 17 32 22 32 11 0 86 -75 116 -115 l23 -30 -12
30 c-19 48 -66 112 -98 135 -33 23 -33 47 -2 83 22 25 34 22 92 -24z m150
-1051 c49 -56 162 -228 174 -265 5 -16 -3 -24 -43 -43 -28 -13 -57 -20 -68
-16 -43 15 38 -39 121 -81 l89 -45 -6 -57 c-9 -83 -77 -341 -137 -521 -89
-267 -237 -562 -368 -733 -34 -45 -85 -112 -114 -150 -28 -37 -53 -66 -55 -63
-2 2 22 55 55 119 57 112 83 184 198 552 31 99 83 252 116 340 33 88 64 171
68 185 71 224 90 287 89 300 0 8 -26 -59 -58 -150 -32 -91 -73 -203 -91 -250
-17 -47 -65 -177 -106 -290 -83 -228 -131 -330 -224 -474 -34 -53 -66 -111
-70 -129 -8 -31 -8 -31 -9 -5 -1 15 10 57 23 92 l24 64 -83 100 c-82 96 -85
102 -108 193 -14 52 -27 112 -31 134 l-6 40 25 -40 c14 -22 67 -123 116 -224
l91 -184 25 59 c104 250 153 399 179 544 19 110 42 377 47 555 3 77 3 122 1
100 -2 -22 -8 -96 -14 -165 -14 -160 -34 -289 -66 -415 -26 -103 -61 -215 -73
-227 -3 -4 -21 97 -40 225 -18 128 -49 324 -67 436 -31 184 -33 207 -20 243
l13 40 20 -28 c11 -16 37 -59 58 -96 22 -38 42 -68 46 -68 17 0 94 221 124
354 11 49 17 21 25 -106 l7 -123 1 121 c1 67 -3 146 -9 175 -7 30 -15 77 -19
104 -4 28 -8 45 -9 38 -10 -86 -24 -178 -32 -218 -13 -62 -69 -237 -79 -248
-4 -5 -29 30 -55 76 -57 102 -128 195 -157 206 -20 7 -19 9 14 34 19 15 81 49
139 76 57 27 122 62 143 79 l40 30 48 -72 c26 -39 70 -97 98 -128z m-935 161
c117 -36 222 -84 285 -130 l44 -32 -22 -15 c-13 -8 -62 -70 -109 -136 -47 -67
-89 -125 -94 -129 -4 -5 -14 17 -23 50 -43 151 -80 256 -107 299 -17 25 -32
44 -34 42 -2 -2 7 -37 21 -78 15 -41 46 -161 69 -266 42 -184 94 -385 190
-724 34 -122 113 -422 151 -575 3 -11 -17 21 -44 70 -26 50 -89 155 -138 235
-185 298 -345 576 -437 758 -69 139 -71 128 31 163 65 22 100 56 138 134 16
32 9 24 -40 -45 l-28 -41 -57 7 c-98 12 -97 3 -31 144 32 70 68 160 80 200 29
103 28 100 43 100 7 0 58 -14 112 -31z m440 -262 c7 -18 17 -61 21 -96 7 -64
7 -64 -17 -58 -13 4 -31 7 -40 7 -9 0 -22 13 -29 30 -7 16 -28 51 -46 77 -31
44 -33 49 -17 61 9 6 39 12 65 12 46 0 50 -2 63 -33z m-77 -147 l47 -75 3
-445 c3 -303 0 -442 -7 -435 -5 6 -40 71 -77 145 l-67 135 7 149 c4 82 16 223
27 314 11 100 16 169 10 176 -5 6 -20 39 -34 73 -18 44 -22 64 -14 72 16 16
49 -19 105 -109z m-108 8 c24 -52 24 -92 5 -273 -8 -77 -15 -192 -16 -255 l-1
-115 -18 65 c-10 36 -41 147 -69 247 -51 183 -57 213 -43 213 4 0 32 36 62 80
30 43 56 79 58 80 2 0 12 -19 22 -42z m1506 -710 l-7 -80 85 -206 c125 -307
143 -378 115 -457 -10 -28 -9 -36 10 -62 20 -26 23 -46 27 -159 4 -116 2 -138
-20 -215 -30 -103 -75 -203 -146 -324 -94 -161 -128 -229 -140 -283 l-12 -54
-47 45 c-79 76 -154 131 -213 157 -32 14 -58 29 -58 34 0 6 9 20 21 32 17 18
19 26 10 42 -16 29 -51 187 -51 227 0 69 82 229 172 334 l28 32 122 6 c114 5
129 4 198 -20 41 -14 77 -23 80 -20 3 3 -17 25 -45 49 -56 50 -56 50 -200 29
-55 -8 -109 -15 -119 -15 -31 0 -7 16 50 34 49 16 99 45 79 46 -6 0 -40 -9
-77 -19 l-67 -19 -31 34 -30 35 0 260 0 261 70 89 c79 99 180 251 180 269 0 6
5 8 11 4 8 -5 10 -31 5 -86z m-343 -730 c9 -24 21 -62 28 -86 7 -23 18 -47 26
-53 22 -19 15 -42 -44 -135 -31 -49 -67 -114 -80 -144 l-24 -55 6 65 c11 124
59 450 65 450 4 0 14 -19 23 -42z m-863 -52 c0 -3 -4 -8 -10 -11 -5 -3 -10 -1
-10 4 0 6 5 11 10 11 6 0 10 -2 10 -4z m-1123 -178 c-3 -7 -5 -2 -5 12 0 14 2
19 5 13 2 -7 2 -19 0 -25z m1097 -87 c3 -5 -1 -11 -9 -14 -9 -4 -12 -1 -8 9 6
16 10 17 17 5z m-1167 -103 c-3 -8 -6 -5 -6 6 -1 11 2 17 5 13 3 -3 4 -12 1
-19z m-10 -50 c-3 -7 -5 -2 -5 12 0 14 2 19 5 13 2 -7 2 -19 0 -25z m-10 -40
c-3 -8 -6 -5 -6 6 -1 11 2 17 5 13 3 -3 4 -12 1 -19z m-10 -40 c-3 -8 -6 -5
-6 6 -1 11 2 17 5 13 3 -3 4 -12 1 -19z m1979 -123 c15 -37 19 -132 6 -153 -5
-7 -16 -10 -26 -6 -15 6 -17 14 -12 43 3 20 6 62 6 94 0 31 2 57 6 57 3 0 12
-16 20 -35z m-1759 -131 c98 -25 195 -50 217 -55 l38 -10 -6 -42 c-17 -102
-38 -177 -51 -177 -16 0 -386 116 -421 132 -13 6 -24 17 -24 25 0 23 52 173
60 173 5 0 88 -21 187 -46z m983 -92 c0 -34 -24 -92 -39 -92 -5 0 -14 6 -20
14 -9 11 -7 15 9 19 29 7 45 54 31 93 -15 42 -13 54 4 24 8 -14 14 -40 15 -58z
m789 9 c10 -6 34 -30 54 -55 l37 -44 -39 5 c-46 6 -126 -32 -211 -102 -56 -46
-79 -52 -43 -12 11 12 42 58 68 102 73 120 86 131 134 106z m170 -85 c81 -61
166 -154 167 -184 0 -15 4 -54 7 -87 7 -59 7 -59 -7 -24 -41 105 -102 189
-192 263 -37 30 -73 64 -81 76 -15 21 -15 21 22 6 21 -9 58 -31 84 -50z m81
-180 c39 -58 52 -100 28 -90 -7 3 -24 28 -38 56 -14 28 -47 81 -74 117 l-49
66 47 -45 c25 -24 64 -71 86 -104z m-50 -33 c19 -27 39 -51 44 -55 8 -5 7 -8
-1 -8 -6 0 -13 -6 -15 -13 -2 -7 -17 17 -35 55 -18 37 -31 68 -29 68 1 0 18
-21 36 -47z m130 -145 c0 -20 -13 -23 -40 -8 -18 10 -18 12 -2 40 l17 29 12
-22 c7 -12 12 -30 13 -39z"/>
<path d="M2301 3865 c0 -35 2 -37 11 -19 7 15 7 28 -1 40 -9 16 -10 12 -10
-21z"/>
<path d="M1920 3794 c-13 -19 -28 -54 -35 -77 -11 -39 -15 -42 -56 -48 l-44
-6 48 -1 c26 -1 47 -6 47 -12 0 -5 -8 -10 -17 -11 -16 0 -16 -1 1 -8 23 -9 18
-13 -52 -36 -29 -9 -51 -19 -49 -21 2 -2 30 5 62 16 70 24 65 24 65 2 0 -10 5
-23 11 -29 8 -8 -2 -18 -35 -38 -57 -33 -60 -43 -6 -15 23 11 46 18 52 14 7
-5 8 -2 3 7 -5 8 -1 7 10 -3 16 -15 17 -19 4 -35 -13 -16 -12 -17 2 -5 14 11
25 8 65 -13 54 -29 67 -28 156 12 l57 25 58 -27 c72 -33 141 -45 200 -34 38 7
50 6 67 -8 20 -17 20 -17 7 0 -8 9 -11 20 -7 24 3 3 -4 13 -15 21 -17 12 -18
16 -8 23 25 16 36 10 110 -58 l74 -68 -44 54 c-25 29 -57 62 -73 74 -21 16
-25 24 -17 34 16 18 21 17 110 -21 43 -19 79 -32 79 -30 0 3 -38 24 -85 47
-47 23 -106 52 -131 65 -25 13 -51 21 -57 19 -7 -2 9 -13 36 -25 26 -11 47
-26 47 -32 0 -19 -27 -22 -59 -6 -48 25 -59 19 -17 -10 28 -19 35 -29 25 -34
-8 -5 -25 0 -43 12 l-31 21 29 -31 30 -32 -55 0 c-75 0 -143 25 -190 70 -40
38 -48 65 -28 101 8 16 7 23 -5 32 -8 7 -17 26 -19 42 -3 21 -4 15 -6 -18 -1
-56 -16 -55 -26 2 -8 47 -26 65 -56 56 -15 -5 -20 -3 -17 6 6 17 156 25 172 9
7 -7 4 -10 -11 -10 -31 0 -45 -23 -33 -54 8 -22 13 -25 28 -17 51 27 109 104
66 87 -8 -3 -28 4 -44 15 -51 38 -200 14 -200 -33 0 -5 15 -23 34 -41 42 -39
76 -95 76 -124 0 -49 -129 -147 -150 -114 -5 9 -9 10 -11 2 -3 -7 -19 0 -42
16 -36 26 -37 27 -20 45 10 9 36 24 58 32 22 8 33 15 25 15 -8 1 -39 -10 -67
-24 -53 -24 -61 -22 -68 15 -3 16 3 21 33 26 20 3 53 10 72 15 30 7 28 8 -15
4 -27 -3 -63 -8 -78 -11 l-28 -6 6 52 c4 29 17 75 31 102 29 56 25 63 -6 12z"/>
<path d="M2548 3766 c15 -24 29 -42 31 -40 4 4 -47 84 -54 84 -2 0 8 -20 23
-44z"/>
<path d="M1770 3781 c26 -22 110 -30 110 -11 0 6 -21 10 -46 10 -25 0 -55 5
-67 11 -19 9 -18 7 3 -10z"/>
<path d="M2632 3770 c-59 -14 -47 -20 42 -20 89 0 145 -17 175 -54 16 -20 51
-21 76 -3 16 13 15 14 -14 9 -25 -3 -38 1 -59 21 -53 51 -132 68 -220 47z"/>
<path d="M2581 3692 c-1 -22 -4 -23 -63 -18 -65 6 -63 5 40 -19 18 -5 23 -11
20 -33 -2 -20 1 -26 13 -24 8 1 41 -7 72 -17 31 -11 57 -16 57 -12 0 5 -27 16
-60 25 -46 13 -60 21 -60 36 0 12 6 17 18 14 9 -2 64 -15 121 -29 57 -14 105
-24 107 -22 3 2 -44 17 -103 33 l-108 29 50 7 c45 5 43 6 -19 5 -67 -2 -70 -1
-77 23 -7 24 -7 24 -8 2z"/>
<path d="M1973 3693 c9 -2 25 -2 35 0 9 3 1 5 -18 5 -19 0 -27 -2 -17 -5z"/>
<path d="M1928 3683 c7 -3 16 -2 19 1 4 3 -2 6 -13 5 -11 0 -14 -3 -6 -6z"/>
<path d="M2398 3683 c12 -2 30 -2 40 0 9 3 -1 5 -23 4 -22 0 -30 -2 -17 -4z"/>
<path d="M1728 3653 c12 -2 30 -2 40 0 9 3 -1 5 -23 4 -22 0 -30 -2 -17 -4z"/>
<path d="M1668 3643 c7 -3 16 -2 19 1 4 3 -2 6 -13 5 -11 0 -14 -3 -6 -6z"/>
<path d="M1745 3615 c-67 -17 -36 -18 40 -1 33 8 49 14 35 14 -14 0 -47 -6
-75 -13z"/>
<path d="M2368 3623 c6 -2 18 -2 25 0 6 3 1 5 -13 5 -14 0 -19 -2 -12 -5z"/>
<path d="M2428 3623 c7 -3 16 -2 19 1 4 3 -2 6 -13 5 -11 0 -14 -3 -6 -6z"/>
<path d="M2738 3563 c7 -3 16 -2 19 1 4 3 -2 6 -13 5 -11 0 -14 -3 -6 -6z"/>
<path d="M1820 3550 c-8 -5 -10 -10 -5 -10 6 0 17 5 25 10 8 5 11 10 5 10 -5
0 -17 -5 -25 -10z"/>
<path d="M1770 3530 c-8 -5 -10 -10 -5 -10 6 0 17 5 25 10 8 5 11 10 5 10 -5
0 -17 -5 -25 -10z"/>
<path d="M1992 3430 c8 -24 128 -112 178 -131 67 -26 139 -21 250 15 90 30 59
35 -65 10 -132 -25 -217 -5 -308 74 -49 43 -61 50 -55 32z"/>
<path d="M3815 1941 c-32 -36 -40 -47 -20 -33 l30 24 22 -29 c12 -15 50 -82
83 -148 33 -66 58 -106 54 -90 -10 41 -79 241 -101 291 l-18 41 -50 -56z"/>
<path d="M4045 1112 c-21 -11 -69 -17 -163 -20 -98 -3 -130 -8 -122 -16 6 -6
59 -12 124 -14 121 -4 164 7 186 48 6 11 9 20 8 19 -2 -1 -16 -8 -33 -17z"/>
<path d="M3623 1004 l-28 -25 25 7 c14 4 61 7 104 6 81 -2 89 6 27 27 -56 18
-97 14 -128 -15z"/>
<path d="M2888 4850 c-67 -44 -197 -229 -233 -329 -19 -54 -19 -54 4 -48 12 3
18 -1 17 -11 -1 -9 15 -20 42 -29 35 -12 41 -18 31 -29 -18 -22 4 -17 45 11
41 28 44 25 15 -17 -30 -41 -13 -50 22 -10 31 35 37 32 14 -8 -22 -39 -18 -43
17 -19 101 72 149 172 164 336 10 106 -23 183 -79 183 -7 0 -34 -14 -59 -30z
m36 -35 c-18 -13 -18 -14 6 -9 14 2 19 2 12 -2 -6 -3 -10 -9 -7 -14 3 -5 -7
-18 -21 -29 -15 -12 -23 -21 -19 -21 4 0 -3 -9 -16 -20 l-24 -21 33 16 c53 26
56 13 5 -25 -61 -45 -64 -58 -16 -62 l38 -3 -60 -19 c-58 -19 -59 -20 -30 -27
17 -3 26 -7 20 -9 -5 -1 -1 -5 10 -10 18 -8 18 -9 -5 -10 -23 -2 -23 -3 5 -9
29 -6 28 -7 -30 -28 -33 -12 -78 -24 -100 -27 l-40 -5 23 19 c13 10 22 21 20
24 -2 3 5 14 14 26 17 19 17 20 -5 21 -12 1 -26 1 -32 -1 -5 -1 9 18 31 42 23
24 58 68 79 98 l36 55 -45 -50 c-25 -27 -45 -47 -46 -43 -1 17 101 126 131
141 42 21 59 22 33 2z m-118 -332 c-3 -4 6 -12 21 -19 26 -11 22 -12 -42 -13
-62 -1 -67 1 -50 13 26 18 86 34 71 19z"/>
<path d="M2798 4533 c7 -3 16 -2 19 1 4 3 -2 6 -13 5 -11 0 -14 -3 -6 -6z"/>
<path d="M2758 4523 c7 -3 16 -2 19 1 4 3 -2 6 -13 5 -11 0 -14 -3 -6 -6z"/>
<path d="M2180 4470 c-7 -13 -8 -33 -4 -53 8 -31 8 -31 15 18 7 58 5 65 -11
35z"/>
<path d="M2271 4479 c-1 -9 -19 -37 -42 -62 -23 -27 -39 -54 -37 -64 3 -13 10
-7 26 22 12 22 32 52 43 66 12 15 19 33 16 40 -4 10 -6 10 -6 -2z"/>
<path d="M2377 4460 c5 -33 41 -85 51 -75 3 3 -2 13 -10 22 -9 10 -23 34 -31
53 l-16 35 6 -35z"/>
<path d="M2082 4438 c-18 -23 -32 -46 -32 -52 0 -10 43 44 61 77 16 29 5 19
-29 -25z"/>
<path d="M2891 4365 c-37 -43 -38 -48 -8 -34 25 11 65 69 49 69 -6 0 -24 -16
-41 -35z"/>
<path d="M2917 4335 c-34 -30 -38 -37 -32 -64 8 -35 16 -38 37 -13 17 19 41
87 36 101 -2 5 -20 -6 -41 -24z"/>
<path d="M1520 3620 c-20 -6 -21 -8 -5 -8 11 0 34 4 50 8 27 7 27 8 5 8 -14 0
-36 -4 -50 -8z"/>
<path d="M1468 3603 c7 -3 16 -2 19 1 4 3 -2 6 -13 5 -11 0 -14 -3 -6 -6z"/>
<path d="M1428 3593 c7 -3 16 -2 19 1 4 3 -2 6 -13 5 -11 0 -14 -3 -6 -6z"/>
<path d="M1520 3540 c-8 -5 -10 -10 -5 -10 6 0 17 5 25 10 8 5 11 10 5 10 -5
0 -17 -5 -25 -10z"/>
<path d="M1448 3509 c-21 -11 -38 -22 -38 -24 0 -5 79 32 89 41 12 11 -18 1
-51 -17z"/>
<path d="M1573 3460 c-29 -17 -53 -33 -53 -35 0 -3 26 9 58 27 66 37 68 38 56
38 -5 0 -33 -14 -61 -30z"/>
<path d="M3150 3345 c35 -36 67 -65 69 -65 3 0 -24 29 -59 65 -35 36 -67 65
-69 65 -3 0 24 -29 59 -65z"/>
<path d="M1444 3368 l-29 -33 33 29 c30 28 37 36 29 36 -2 0 -16 -15 -33 -32z"/>
<path d="M1509 3363 c-13 -16 -12 -17 4 -4 9 7 17 15 17 17 0 8 -8 3 -21 -13z"/>
<path d="M1439 3303 l-34 -38 38 34 c34 33 42 41 34 41 -2 0 -19 -17 -38 -37z"/>
<path d="M3681 2634 c0 -11 3 -14 6 -6 3 7 2 16 -1 19 -3 4 -6 -2 -5 -13z"/>
<path d="M1259 1915 c-40 -14 -129 -75 -111 -75 19 0 205 69 216 80 15 15 -61
12 -105 -5z"/>
<path d="M3306 1334 c-15 -47 -60 -151 -101 -233 -40 -81 -85 -181 -100 -222
l-26 -74 35 34 c41 40 102 153 140 259 28 78 89 312 83 318 -2 2 -16 -35 -31
-82z"/>
<path d="M1840 1404 c1 -18 48 -189 49 -176 1 15 -38 175 -45 181 -2 2 -4 0
-4 -5z"/>
<path d="M1892 1200 c0 -8 6 -51 13 -95 l14 -80 -5 67 c-5 61 -22 144 -22 108z"/>
<path d="M1918 998 c-2 -7 -1 -31 3 -53 6 -40 6 -39 8 13 1 51 -3 65 -11 40z"/>
<path d="M1420 980 c-8 -5 -58 -23 -110 -40 -155 -49 -162 -64 -13 -29 122 28
119 27 131 54 13 28 13 28 -8 15z"/>
<path d="M1933 805 c0 -22 2 -30 4 -17 2 12 2 30 0 40 -3 9 -5 -1 -4 -23z"/>
<path d="M2386 548 c-21 -29 -20 -51 2 -71 21 -19 45 -21 73 -7 21 12 25 50 9
81 -15 27 -64 25 -84 -3z"/>
<path d="M2876 502 c10 -19 32 -48 47 -65 20 -23 18 -17 -9 23 -46 67 -64 87
-38 42z"/>
<path d="M1338 143 c7 -3 16 -2 19 1 4 3 -2 6 -13 5 -11 0 -14 -3 -6 -6z"/>
<path d="M1233 133 c9 -2 23 -2 30 0 6 3 -1 5 -18 5 -16 0 -22 -2 -12 -5z"/>
<path d="M1168 123 c6 -2 18 -2 25 0 6 3 1 5 -13 5 -14 0 -19 -2 -12 -5z"/>
</g>
</svg>